<?xml version="1.0" standalone="no"?>
<!DOCTYPE svg PUBLIC "-//W3C//DTD SVG 20010904//EN"
 "http://www.w3.org/TR/2001/REC-SVG-20010904/DTD/svg10.dtd">
<svg version="1.0" xmlns="http://www.w3.org/2000/svg"
 width="126.000000pt" height="108.000000pt" viewBox="0 0 126.000000 108.000000"
 preserveAspectRatio="xMidYMid meet">
<metadata>
Created by potrace 1.10, written by Peter Selinger 2001-2011
</metadata>
<g transform="translate(0.000000,108.000000) scale(0.100000,-0.100000)"
fill="#000000" stroke="none">
<path d="M330 940 l0 -140 -155 0 -155 0 0 -260 0 -260 155 0 155 0 0 -140 0
-140 285 0 285 0 0 140 0 140 155 0 155 0 0 260 0 260 -155 0 -155 0 0 140 0
140 -285 0 -285 0 0 -140z m550 -15 l0 -135 155 0 155 0 0 -250 0 -250 -155 0
-155 0 0 -135 0 -135 -267 0 -268 0 3 135 4 135 -156 0 -156 0 0 250 0 250
156 0 156 0 -4 135 -3 135 268 0 267 0 0 -135z"/>
<path d="M390 879 l0 -142 -82 7 c-54 5 -79 4 -73 -2 6 -5 56 -46 111 -90
l101 -80 79 64 c44 35 83 63 87 64 4 0 42 -29 85 -64 l77 -64 103 83 c56 45
106 86 110 89 4 4 -29 6 -72 5 l-78 -2 1 136 2 137 -226 0 -225 0 0 -141z
m317 98 c6 -4 14 -3 17 2 7 10 56 5 69 -8 4 -4 9 -55 11 -112 2 -57 4 -108 5
-112 0 -4 17 -15 36 -23 19 -8 35 -18 35 -23 0 -10 -90 -81 -103 -81 -11 0
-120 80 -125 93 -7 15 -60 6 -91 -15 -17 -13 -49 -36 -71 -52 -46 -33 -59 -30
-119 26 l-33 31 28 12 c48 20 53 34 55 148 1 119 2 120 78 116 22 -2 43 -1 45
2 8 8 150 4 163 -4z"/>
<path d="M80 536 l0 -205 37 6 c38 6 163 94 163 115 0 5 4 7 9 4 4 -3 19 7 32
21 l24 27 -30 -18 c-16 -10 -41 -28 -55 -41 -36 -31 -121 -85 -136 -85 -17 0
-27 130 -18 251 l7 101 29 -6 c16 -3 36 -12 44 -20 8 -8 23 -18 34 -21 11 -3
20 -10 20 -15 0 -4 17 -19 38 -31 20 -13 43 -27 50 -32 6 -4 12 -6 12 -3 0 3
-42 39 -94 81 -78 62 -101 75 -130 75 l-36 0 0 -204z"/>
<path d="M1035 714 c-34 -29 -50 -43 -118 -98 -26 -21 -46 -41 -43 -43 4 -4
82 52 126 90 32 28 70 47 95 47 l25 0 0 -162 c0 -90 -4 -169 -9 -177 -8 -12
-14 -12 -39 -2 -16 7 -38 20 -48 30 -11 9 -35 27 -54 41 -19 13 -37 27 -40 30
-3 3 -22 19 -43 35 -22 16 -36 34 -33 42 6 16 -3 17 -24 2 -11 -8 -12 -12 -3
-16 7 -2 64 -47 126 -98 94 -77 120 -94 153 -97 l39 -3 3 203 2 202 -42 0
c-31 -1 -51 -8 -73 -26z"/>
<path d="M554 597 c-28 -23 -114 -91 -190 -152 l-139 -110 77 -3 77 -3 3 -137
3 -137 80 -3 c44 -2 91 0 104 3 22 6 23 9 19 80 l-3 75 37 0 37 0 4 -78 3 -77
2 83 2 82 -50 0 -50 0 0 -80 0 -80 -90 0 -90 0 0 139 0 139 -61 9 -61 8 123
96 c68 53 147 113 176 133 l52 37 166 -133 c177 -141 179 -146 88 -147 l-43
-1 0 -140 0 -139 -77 -4 -78 -3 80 0 80 1 3 138 3 137 77 0 77 0 -25 24 c-37
35 -352 286 -359 285 -3 0 -29 -19 -57 -42z"/>
<path d="M350 572 c0 -4 5 -13 10 -18 13 -13 2 -46 -13 -37 -6 3 -7 1 -3 -5 5
-9 14 -7 31 5 30 22 30 24 0 46 -14 10 -25 14 -25 9z"/>
</g>
</svg>
